PathFileType	4	(X/Y/Z)	 s08c0301.trc
DataRate	CameraRate	NumFrames	NumMarkers	Units	OrigDataRate	OrigDataStartFrame	OrigNumFrames
200	200	4	50	mm	200	751	2000
Frame#	Time	racr			lacr			c7			jug			rlel			rdr			llel			ldr			s2			lic			ric			lasi			rasi			rpsi			lpsi			rgt			lgt			rth1			rth2			rth3			rth4			rlfc			rmfc			rsh1			rsh2			rsh3			rsh4			rlmal			rmmal			rcal			rtoe			rmt5			lth1			lth2			lth4			lth3			llfc			lmfc			llmal			lmmal			lcal			lmt5			lsh1			lsh2			lsh3			lsh4			ltoe			SBIKE			LBIKE			RBIKE			
		X1	Y1	Z1	X2	Y2	Z2	X3	Y3	Z3	X4	Y4	Z4	X5	Y5	Z5	X6	Y6	Z6	X7	Y7	Z7	X8	Y8	Z8	X9	Y9	Z9	X10	Y10	Z10	X11	Y11	Z11	X12	Y12	Z12	X13	Y13	Z13	X14	Y14	Z14	X15	Y15	Z15	X16	Y16	Z16	X17	Y17	Z17	X18	Y18	Z18	X19	Y19	Z19	X20	Y20	Z20	X21	Y21	Z21	X22	Y22	Z22	X23	Y23	Z23	X24	Y24	Z24	X25	Y25	Z25	X26	Y26	Z26	X27	Y27	Z27	X28	Y28	Z28	X29	Y29	Z29	X30	Y30	Z30	X31	Y31	Z31	X32	Y32	Z32	X33	Y33	Z33	X34	Y34	Z34	X35	Y35	Z35	X36	Y36	Z36	X37	Y37	Z37	X38	Y38	Z38	X39	Y39	Z39	X40	Y40	Z40	X41	Y41	Z41	X42	Y42	Z42	X43	Y43	Z43	X44	Y44	Z44	X45	Y45	Z45	X46	Y46	Z46	X47	Y47	Z47	X48	Y48	Z48	X49	Y49	Z49	X50	Y50	Z50	
751	3.7550	848.230707	1330.835304	-3.722759	862.082868	1354.122526	-340.209850	855.737534	1393.964300	-165.626721	763.323450	1261.633167	-176.995341	651.846357	1120.983497	76.792188	798.291912	905.530994	-27.647050	725.091356	1139.142862	-482.016338	820.631953	891.966759	-404.345790	281.369961	1283.639658	-271.996495	468.270337	1251.912908	-377.807811	397.456044	1268.738683	-73.107332	465.699986	1193.661276	-341.454931	425.383418	1214.097281	-106.624587	307.256433	1320.629420	-216.900728	327.606473	1320.467363	-304.929240	304.034549	1171.617014	-64.349030	392.297236	1136.618596	-429.417533	403.959223	1028.825051	-37.691024	471.237751	971.870398	-26.889025	502.024079	890.240831	-31.023572	501.594072	993.212285	-28.309026	566.836892	785.875045	-35.438786	567.717246	781.486869	-155.443409	480.274467	682.913976	-18.581434	465.539575	595.559746	-38.232314	410.264042	531.205696	-50.747911	497.650164	586.540724	-62.415352	352.921964	427.227654	-67.149791	381.016199	444.503304	-152.006984	273.067198	407.157419	-118.121040	563.955984	362.545782	-85.799622	467.519567	340.497709	-28.322193	437.119181	1008.328387	-423.588180	480.517870	933.145645	-413.633251	512.332913	942.449699	-398.845835	481.605610	844.101171	-414.178866	474.643988	710.603058	-401.156611	456.027750	689.977690	-293.930633	155.334321	431.676163	-406.747670	187.889879	422.652552	-322.467054	109.019868	471.717325	-362.149068	154.731078	260.394444	-415.776415	378.623102	620.553658	-425.370527	329.708390	552.051634	-409.426266	251.629247	510.563144	-412.074448	344.655539	537.818312	-373.208888	217.875642	202.749931	-344.784911	-133.718215	943.843219	-222.114914	26.389423	84.602829	-426.518398	17.363397	80.344036	-28.225338	
752	3.7600	849.422457	1328.425260	-4.133033	861.284935	1354.404459	-341.818806	856.220156	1393.283202	-166.749151	763.188460	1261.431414	-178.593728	651.799659	1119.963644	77.348020	798.084477	905.453459	-27.580026	724.094110	1138.798366	-482.088581	820.394075	891.753521	-404.360019	280.848484	1282.568596	-272.226387	468.406491	1252.562985	-377.053420	398.298262	1265.800296	-71.734695	466.107002	1194.611694	-340.276981	425.302405	1211.532577	-105.310452	307.764059	1318.582308	-217.798374	327.422404	1319.854933	-303.585719	302.586084	1168.183367	-64.732800	395.288654	1137.173107	-429.284144	401.697276	1024.402497	-38.439636	468.051458	966.171737	-27.863971	497.483260	884.168894	-32.366744	498.743850	986.798576	-29.601846	560.862738	778.912291	-36.980233	561.707516	773.513981	-156.696132	475.591572	674.435948	-18.918044	462.200380	586.910025	-38.315277	408.154440	521.346177	-50.606210	494.621871	578.379311	-61.806251	353.325597	415.648707	-66.780397	381.024621	433.492126	-151.518295	273.604658	395.120284	-117.670218	564.813148	352.014081	-86.065408	468.574426	329.392854	-28.442246	441.249206	1009.550501	-422.796383	485.609857	934.918227	-412.033319	516.923233	944.733967	-396.514291	488.140160	845.984593	-412.967712	482.172765	712.897764	-399.786316	462.278644	692.563044	-292.612996	156.465981	441.928167	-406.724114	188.748436	432.582700	-322.508936	110.584137	482.602364	-362.266256	153.552910	270.612576	-415.658999	384.669454	625.104769	-424.315074	334.040335	557.829671	-408.791828	254.917624	518.213206	-411.532864	348.438102	543.037679	-372.273643	215.940352	212.301285	-344.820120	-133.735099	943.811498	-222.112666	26.370150	84.544773	-426.554388	17.325219	80.335966	-28.238584	
753	3.7650	850.909335	1326.255556	-4.681991	860.490557	1354.817597	-343.635963	856.746899	1392.845228	-167.999385	763.361634	1261.282799	-180.228547	652.348844	1119.022899	78.386269	797.926649	905.421902	-27.272177	722.976084	1138.493837	-482.385103	820.193658	891.668312	-404.396976	280.849716	1281.210977	-271.269330	468.499816	1253.003898	-376.062027	399.041935	1262.857610	-70.770026	466.475341	1195.220743	-339.338697	425.382940	1208.395928	-104.085103	306.588925	1317.462305	-211.256868	327.297743	1318.939288	-302.684744	302.500760	1164.687285	-65.500211	397.817458	1137.753349	-429.050216	399.648835	1019.548316	-39.237147	464.897280	960.138715	-28.987148	492.727981	877.634711	-33.766000	496.001736	980.078988	-30.736833	554.858987	771.603587	-38.673052	555.523346	765.438131	-158.224230	471.209951	665.467420	-19.334786	459.104941	577.817586	-38.660395	406.003182	511.477915	-50.458926	490.730788	569.668377	-62.098399	353.255931	404.113132	-66.147350	380.481054	422.437765	-150.965762	273.628983	383.447628	-116.960502	565.119364	341.244352	-86.296027	469.088140	318.178992	-28.478935	445.043234	1010.559926	-422.121475	490.342282	936.754175	-410.646720	521.149370	946.949879	-394.316314	494.290699	847.752553	-411.747046	489.422290	715.216431	-398.310033	468.379393	695.086651	-291.318596	157.929413	452.294153	-406.559636	189.924069	441.902490	-321.695720	112.319468	493.459454	-362.274802	153.065064	281.078172	-415.580605	390.633311	629.696581	-423.216328	338.947538	563.848545	-408.123606	258.396427	526.057435	-410.882570	352.563067	548.465152	-371.468499	214.922179	222.249373	-344.814899	-133.761578	943.789374	-222.011806	26.359074	84.525924	-426.546283	17.291989	80.340351	-28.205472	
754	3.7700	852.769094	1324.066198	-5.824328	859.708903	1355.270587	-345.732932	857.378460	1392.492436	-169.497967	763.853286	1261.076093	-182.177434	653.481867	1118.240414	79.912355	797.819691	905.391535	-26.771925	721.810174	1138.230870	-482.740262	819.949586	891.606383	-404.271095	281.843472	1279.604389	-271.040622	468.468061	1253.065126	-374.988453	399.720769	1259.802281	-69.942594	466.817874	1195.487588	-338.488329	425.670637	1204.857500	-102.674854	305.989034	1315.844254	-209.371997	327.461945	1318.306315	-302.235622	302.577430	1161.313136	-65.693450	399.953709	1138.258848	-428.782962	397.645238	1014.383925	-40.005137	461.639335	953.734088	-30.003203	487.889490	870.553013	-35.392129	493.325151	972.847209	-31.926399	548.753777	763.719727	-40.588268	549.015102	757.306253	-159.803539	467.256414	656.290244	-20.113380	456.280825	567.875078	-40.404698	404.094671	501.255498	-50.444583	487.564318	560.772180	-63.286293	352.647230	392.892750	-65.215873	379.543446	411.289513	-150.372387	273.007362	371.988025	-115.904653	564.907423	330.423602	-86.388065	468.991833	306.872510	-28.498683	448.384340	1011.535892	-421.640980	494.758869	938.478255	-409.377111	525.013468	949.154531	-392.284511	500.145613	849.574078	-410.520620	496.656976	717.713927	-396.531926	474.997939	697.728721	-289.319718	159.573464	462.803714	-406.365708	191.327268	451.945794	-321.329206	114.069966	504.481695	-362.295018	153.332216	291.746053	-415.503466	396.710393	634.570469	-422.078449	343.499154	570.134396	-406.981803	261.904672	534.099797	-410.274980	356.556452	554.084829	-370.146962	214.677570	232.305870	-344.641079	-133.767995	943.798771	-221.878409	26.348306	84.558363	-426.515050	17.301820	80.326866	-28.184950	
